<?xml version="1.0" encoding="UTF-8" standalone="no"?>
<!-- Created with Inkscape (http://www.inkscape.org/) -->

<svg
   xmlns:dc="http://purl.org/dc/elements/1.1/"
   xmlns:cc="http://creativecommons.org/ns#"
   xmlns:rdf="http://www.w3.org/1999/02/22-rdf-syntax-ns#"
   xmlns:svg="http://www.w3.org/2000/svg"
   xmlns="http://www.w3.org/2000/svg"
   xmlns:sodipodi="http://sodipodi.sourceforge.net/DTD/sodipodi-0.dtd"
   xmlns:inkscape="http://www.inkscape.org/namespaces/inkscape"
   width="32"
   height="32"
   viewBox="0 0 8.4666665 8.4666669"
   version="1.1"
   id="svg8"
   inkscape:version="0.92.3 (2405546, 2018-03-11)"
   sodipodi:docname="lock.svg">
  <defs
     id="defs2" />
  <sodipodi:namedview
     id="base"
     pagecolor="#ffffff"
     bordercolor="#666666"
     borderopacity="1.0"
     inkscape:pageopacity="0.0"
     inkscape:pageshadow="2"
     inkscape:zoom="14.481547"
     inkscape:cx="14.730251"
     inkscape:cy="16.173599"
     inkscape:document-units="mm"
     inkscape:current-layer="g33"
     showgrid="false"
     units="px"
     inkscape:window-width="1366"
     inkscape:window-height="715"
     inkscape:window-x="0"
     inkscape:window-y="25"
     inkscape:window-maximized="1" />
  <metadata
     id="metadata5">
    <rdf:RDF>
      <cc:Work
         rdf:about="">
        <dc:format>image/svg+xml</dc:format>
        <dc:type
           rdf:resource="http://purl.org/dc/dcmitype/StillImage" />
        <dc:title></dc:title>
      </cc:Work>
    </rdf:RDF>
  </metadata>
  <g
     inkscape:label="Layer 1"
     inkscape:groupmode="layer"
     id="layer1"
     transform="translate(0,-288.53332)">
    <g
       id="g33"
       transform="matrix(0.15684565,0,0,0.15684565,2.6083593,287.62926)">
      <g
         id="g14"
         transform="matrix(1.531469,0,0,1.531469,-15.674634,6.7194791)">
        <path
           id="path10"
           d="m 9,33 h 16 c 1.93,0 3.5,-1.57 3.5,-3.5 v -13 c 0,-1.759 -1.308,-3.204 -3,-3.45 V 9.5 C 25.5,4.813 21.687,1 17,1 12.313,1 8.5,4.813 8.5,9.5 v 3.55 c -1.692,0.245 -3,1.691 -3,3.45 v 13 C 5.5,31.43 7.07,33 9,33 Z M 11.5,9.5 C 11.5,6.467 13.967,4 17,4 c 3.033,0 5.5,2.467 5.5,5.5 V 13 h -11 z m -3,7 C 8.5,16.224 8.724,16 9,16 h 16 c 0.271,0 0.5,0.229 0.5,0.5 v 13 C 25.5,29.771 25.271,30 25,30 H 9 C 8.724,30 8.5,29.776 8.5,29.5 Z"
           inkscape:connector-curvature="0" />
        <path
           id="path12"
           d="m 17,27 c 0.829,0 1.5,-0.671 1.5,-1.5 v -5 C 18.5,19.671 17.829,19 17,19 c -0.829,0 -1.5,0.671 -1.5,1.5 v 5 c 0,0.829 0.671,1.5 1.5,1.5 z"
           inkscape:connector-curvature="0" />
      </g>
    </g>
  </g>
</svg>
