<?xml version="1.0" encoding="UTF-8" standalone="no"?>
<!-- Created with Inkscape (http://www.inkscape.org/) -->

<svg
   xmlns:dc="http://purl.org/dc/elements/1.1/"
   xmlns:cc="http://creativecommons.org/ns#"
   xmlns:rdf="http://www.w3.org/1999/02/22-rdf-syntax-ns#"
   xmlns:svg="http://www.w3.org/2000/svg"
   xmlns="http://www.w3.org/2000/svg"
   xmlns:sodipodi="http://sodipodi.sourceforge.net/DTD/sodipodi-0.dtd"
   xmlns:inkscape="http://www.inkscape.org/namespaces/inkscape"
   width="128"
   height="128"
   viewBox="0 0 33.866665 33.866667"
   version="1.1"
   id="svg8"
   inkscape:version="0.92.4 (unknown)"
   sodipodi:docname="logo.svg">
  <defs
     id="defs2" />
  <sodipodi:namedview
     id="base"
     pagecolor="#ffffff"
     bordercolor="#666666"
     borderopacity="1.0"
     inkscape:pageopacity="0.0"
     inkscape:pageshadow="2"
     inkscape:zoom="5.6"
     inkscape:cx="75.118107"
     inkscape:cy="57.522419"
     inkscape:document-units="mm"
     inkscape:current-layer="g3732"
     showgrid="false"
     units="px"
     inkscape:window-width="1920"
     inkscape:window-height="1027"
     inkscape:window-x="0"
     inkscape:window-y="25"
     inkscape:window-maximized="1" />
  <metadata
     id="metadata5">
    <rdf:RDF>
      <cc:Work
         rdf:about="">
        <dc:format>image/svg+xml</dc:format>
        <dc:type
           rdf:resource="http://purl.org/dc/dcmitype/StillImage" />
        <dc:title></dc:title>
      </cc:Work>
    </rdf:RDF>
  </metadata>
  <g
     inkscape:label="Layer 1"
     inkscape:groupmode="layer"
     id="layer1"
     transform="translate(0,-263.13332)">
    <g
       id="g3732"
       transform="matrix(0.26458333,0,0,0.26458333,5.5480567,263.78763)">
      <path
         id="path3715"
         d="M 48.025297,0.89431439 A 7.1361669,7.1361669 0 0 0 39.936794,3.9163922 L -1.8770808,68.941857 a 5.0791224,5.0791224 0 0 0 4.2791603,7.834546 H 32.876814 v 38.512457 a 7.1996559,7.1996559 0 0 0 13.243812,3.88553 L 87.947198,54.123517 a 5.0791224,5.0791224 0 0 0 -4.27916,-7.821848 H 53.193304 V 7.8019206 A 7.1742603,7.1742603 0 0 0 48.025297,0.89431439 Z M 74.360546,56.459914 43.035059,105.1814 V 71.697281 A 5.0791224,5.0791224 0 0 0 37.955936,66.618158 H 11.709572 L 43.035059,17.871281 v 33.50951 a 5.0791224,5.0791224 0 0 0 5.079122,5.079123 z"
         inkscape:connector-curvature="0"
         style="stroke-width:1.26978064" />
      <text
         id="text3717"
         font-weight="bold"
         font-size="5px"
         y="115"
         x="0"
         style="font-weight:bold;font-size:5px;font-family:'Helvetica Neue', Helvetica, Arial-Unicode, Arial, Sans-serif;fill:#000000" />
    </g>
  </g>
</svg>
