<?xml version="1.0" encoding="UTF-8" standalone="no"?>
<!-- Created with Inkscape (http://www.inkscape.org/) -->

<svg
   xmlns:dc="http://purl.org/dc/elements/1.1/"
   xmlns:cc="http://creativecommons.org/ns#"
   xmlns:rdf="http://www.w3.org/1999/02/22-rdf-syntax-ns#"
   xmlns:svg="http://www.w3.org/2000/svg"
   xmlns="http://www.w3.org/2000/svg"
   xmlns:sodipodi="http://sodipodi.sourceforge.net/DTD/sodipodi-0.dtd"
   xmlns:inkscape="http://www.inkscape.org/namespaces/inkscape"
   width="32"
   height="32"
   viewBox="0 0 8.4666665 8.4666669"
   version="1.1"
   id="svg8"
   inkscape:version="0.92.3 (2405546, 2018-03-11)"
   sodipodi:docname="user.svg">
  <defs
     id="defs2" />
  <sodipodi:namedview
     id="base"
     pagecolor="#ffffff"
     bordercolor="#666666"
     borderopacity="1.0"
     inkscape:pageopacity="0.0"
     inkscape:pageshadow="2"
     inkscape:zoom="7.9195959"
     inkscape:cx="26.607401"
     inkscape:cy="14.930543"
     inkscape:document-units="mm"
     inkscape:current-layer="g3736"
     showgrid="false"
     units="px"
     inkscape:window-width="1366"
     inkscape:window-height="715"
     inkscape:window-x="0"
     inkscape:window-y="25"
     inkscape:window-maximized="1" />
  <metadata
     id="metadata5">
    <rdf:RDF>
      <cc:Work
         rdf:about="">
        <dc:format>image/svg+xml</dc:format>
        <dc:type
           rdf:resource="http://purl.org/dc/dcmitype/StillImage" />
        <dc:title></dc:title>
      </cc:Work>
    </rdf:RDF>
  </metadata>
  <g
     inkscape:label="Layer 1"
     inkscape:groupmode="layer"
     id="layer1"
     transform="translate(0,-288.53332)">
    <g
       id="g3736"
       transform="matrix(0.08841235,0,0,0.08841235,10.017413,294.74765)">
      <g
         id="g3717"
         transform="matrix(2.5941542,0,0,2.5941542,-109.52225,-66.506956)">
        <path
           id="path3713"
           d="M 30.735,27.873 V 27.735 C 30.735,20.162 24.574,14 17,14 9.426,14 3.265,20.162 3.265,27.735 l 10e-4,0.134 C 3.293,30.698 5.655,33 8.531,33 h 16.938 c 2.876,0 5.238,-2.302 5.266,-5.127 z M 6.266,27.836 6.265,27.735 C 6.265,21.816 11.081,17 17,17 c 5.92,0 10.735,4.816 10.735,10.735 v 0.104 C 27.724,29.031 26.707,30 25.469,30 H 8.531 C 7.293,30 6.277,29.031 6.266,27.836 Z"
           inkscape:connector-curvature="0" />
        <path
           id="path3715"
           d="m 17.002,1 c -3.033,0 -5.5,2.468 -5.5,5.5 0,3.032 2.467,5.5 5.5,5.5 3.033,0 5.5,-2.468 5.5,-5.5 0,-3.032 -2.467,-5.5 -5.5,-5.5 z m 0,8 c -1.378,0 -2.5,-1.121 -2.5,-2.5 0,-1.379 1.122,-2.5 2.5,-2.5 1.378,0 2.5,1.121 2.5,2.5 0,1.379 -1.122,2.5 -2.5,2.5 z"
           inkscape:connector-curvature="0" />
      </g>
    </g>
  </g>
</svg>
